<?xml version="1.0" encoding="UTF-8" standalone="no"?><!DOCTYPE svg PUBLIC "-//W3C//DTD SVG 1.1//EN" "http://www.w3.org/Graphics/SVG/1.1/DTD/svg11.dtd"><svg width="100%" height="100%" viewBox="0 0 16 16" version="1.1" xmlns="http://www.w3.org/2000/svg" xmlns:xlink="http://www.w3.org/1999/xlink" xml:space="preserve" xmlns:serif="http://www.serif.com/" style="fill-rule:evenodd;clip-rule:evenodd;stroke-linejoin:round;stroke-miterlimit:2;"><path d="M8,10.448l-0.095,0.005c-0.409,0.048 -0.721,0.399 -0.721,0.81l0.006,0.096c0.048,0.409 0.398,0.72 0.81,0.72l0.095,-0.005c0.409,-0.048 0.721,-0.399 0.721,-0.811l-0.006,-0.095c-0.048,-0.409 -0.398,-0.72 -0.81,-0.72Z" style="fill:#fff;fill-rule:nonzero;"/><path d="M8,3.92l-0.095,0.006c-0.409,0.048 -0.721,0.398 -0.721,0.81l0,4.08c0,0.447 0.368,0.815 0.816,0.816l0.095,-0.006c0.409,-0.048 0.721,-0.398 0.721,-0.81l-0,-4.08c-0,-0.447 -0.368,-0.816 -0.816,-0.816Z" style="fill:#fff;fill-rule:nonzero;"/><path d="M14.188,6.845l-5.033,-5.033c-0.306,-0.306 -0.722,-0.479 -1.155,-0.479c-0.433,0 -0.849,0.173 -1.155,0.479l-5.033,5.033c-0.306,0.306 -0.479,0.722 -0.479,1.155c0,0.434 0.173,0.85 0.479,1.156l5.033,5.032c0.306,0.306 0.722,0.479 1.155,0.479c0.433,-0 0.849,-0.173 1.155,-0.479l5.033,-5.032c0.306,-0.306 0.479,-0.722 0.479,-1.156c-0,-0.433 -0.173,-0.849 -0.479,-1.155Zm-6.093,5.229l-0.095,0.005c-0.412,0 -0.762,-0.311 -0.81,-0.72l-0.006,-0.096c0,-0.411 0.312,-0.762 0.721,-0.81l0.095,-0.005c0.412,-0 0.762,0.311 0.81,0.72l0.006,0.095c-0,0.412 -0.312,0.763 -0.721,0.811Zm0.721,-3.258c-0,0.412 -0.312,0.762 -0.721,0.81l-0.095,0.006c-0.448,-0.001 -0.816,-0.369 -0.816,-0.816l0,-4.08c0,-0.412 0.312,-0.762 0.721,-0.81l0.095,-0.006c0.448,0 0.816,0.369 0.816,0.816l-0,4.08Z" style="fill:#d11212;fill-rule:nonzero;"/></svg>