<?xml version="1.0" encoding="UTF-8" standalone="no"?><!DOCTYPE svg PUBLIC "-//W3C//DTD SVG 1.1//EN" "http://www.w3.org/Graphics/SVG/1.1/DTD/svg11.dtd"><svg width="100%" height="100%" viewBox="0 0 16 16" version="1.1" xmlns="http://www.w3.org/2000/svg" xmlns:xlink="http://www.w3.org/1999/xlink" xml:space="preserve" xmlns:serif="http://www.serif.com/" style="fill-rule:evenodd;clip-rule:evenodd;stroke-linejoin:round;stroke-miterlimit:2;"><g id="Layer1"><circle cx="8" cy="8" r="5.937" style="fill:#126ed1;"/></g><path d="M8,5.552l-0.095,-0.005c-0.409,-0.049 -0.721,-0.399 -0.721,-0.811l0.006,-0.095c0.048,-0.409 0.398,-0.72 0.81,-0.721l0.095,0.006c0.409,0.048 0.721,0.398 0.721,0.81l-0.006,0.095c-0.048,0.409 -0.398,0.721 -0.81,0.721Z" style="fill:#fff;fill-rule:nonzero;"/><path d="M8,12.079l-0.095,-0.005c-0.409,-0.048 -0.721,-0.399 -0.721,-0.811l0,-3.773c0,-0.447 0.368,-0.815 0.816,-0.816l0.095,0.006c0.409,0.048 0.721,0.398 0.721,0.81l-0,3.773c-0,0.448 -0.368,0.816 -0.816,0.816Z" style="fill:#fff;fill-rule:nonzero;"/></svg>