<?xml version="1.0" encoding="UTF-8" standalone="no"?><!DOCTYPE svg PUBLIC "-//W3C//DTD SVG 1.1//EN" "http://www.w3.org/Graphics/SVG/1.1/DTD/svg11.dtd"><svg width="100%" height="100%" viewBox="0 0 16 16" version="1.1" xmlns="http://www.w3.org/2000/svg" xmlns:xlink="http://www.w3.org/1999/xlink" xml:space="preserve" xmlns:serif="http://www.serif.com/" style="fill-rule:evenodd;clip-rule:evenodd;stroke-linejoin:round;stroke-miterlimit:2;"><path d="M13.291,2.614c-0.151,-0.138 -0.386,-0.129 -0.526,0.021l-5.193,5.543c-0.063,0.067 -0.099,0.155 -0.101,0.247l-0.019,0.806c-0.002,0.1 0.035,0.197 0.105,0.269c0.069,0.072 0.164,0.113 0.264,0.115l0.78,0.012c0.106,0.002 0.208,-0.042 0.28,-0.119l5.248,-5.619c0.069,-0.073 0.105,-0.171 0.101,-0.271c-0.004,-0.101 -0.048,-0.195 -0.123,-0.262l-0.816,-0.742Z" style="fill:#d19a20;"/><rect x="2.806" y="9.633" width="4.496" height="1.349" style="fill:#d19a20;"/><path d="M6.612,11.652l0,0.005l-3.799,-0c0.022,0.399 0.191,0.779 0.475,1.063c0.306,0.306 0.722,0.477 1.153,0.478l7.101,0.005c0.432,-0 0.847,-0.171 1.153,-0.477c0.305,-0.305 0.477,-0.721 0.476,-1.153l-0.003,-4.664l-1.549,1.785l0,2.47c0,0.269 -0.218,0.488 -0.487,0.488l-4.52,-0Zm-3.802,-0.67l1.547,-0l-0,-6.106c-0,-0.269 0.219,-0.488 0.488,-0.488l4.273,-0l1.343,-1.547l-6.026,-0.004c-0.432,-0 -0.847,0.171 -1.153,0.476c-0.306,0.306 -0.477,0.722 -0.476,1.153l0.004,6.516Z" style="fill:#d19a20;"/></svg>