<?xml version="1.0" encoding="UTF-8" standalone="no"?>
<svg
   xmlns:dc="http://purl.org/dc/elements/1.1/"
   xmlns:cc="http://creativecommons.org/ns#"
   xmlns:rdf="http://www.w3.org/1999/02/22-rdf-syntax-ns#"
   xmlns:svg="http://www.w3.org/2000/svg"
   xmlns="http://www.w3.org/2000/svg"
   id="svg963"
   version="1.1"
   viewBox="0 0 15.777235 9.3690815"
   height="9.3690815mm"
   width="15.777235mm">
  <defs
     id="defs957" />
  <metadata
     id="metadata960">
    <rdf:RDF>
      <cc:Work
         rdf:about="">
        <dc:format>image/svg+xml</dc:format>
        <dc:type
           rdf:resource="http://purl.org/dc/dcmitype/StillImage" />
        <dc:title></dc:title>
      </cc:Work>
    </rdf:RDF>
  </metadata>
  <g
     transform="translate(-21.592482,-11.477399)"
     id="layer1">
    <g
       transform="matrix(0.09107633,0,0,0.09107633,431.59123,-7.9467492)"
       id="g955"
       style="fill:#000000;fill-opacity:1;stroke:none;stroke-opacity:1">
      <path
         id="path951"
         transform="matrix(2.9050724,0,0,2.9050724,-4738.7859,87.253727)"
         d="m 121.67578,43.384766 a 7.5849066,7.5849066 0 0 0 -6.2207,11.464843 l 11.58594,20.06836 a 7.5849066,7.5849066 0 1 0 13.13671,-7.583985 L 128.58984,47.265625 a 7.5849066,7.5849066 0 0 0 -6.91406,-3.880859 z m -22.253905,0.002 c -2.674185,0.114055 -5.090087,1.628772 -6.357422,3.986328 -1.2673,2.357549 -1.198359,5.208523 0.181641,7.501953 l 2.921875,5.015625 c -0.0045,-0.001 -0.0072,-0.0029 -0.01172,-0.0039 1.401032,3.104053 -1.128281,5.26946 -3.763672,4.40039 -0.974606,-0.4255 -2.116459,-0.737029 -3.236328,-0.740234 -4.167641,0 -7.546875,3.379223 -7.546875,7.546875 0,4.167655 3.379234,7.546765 7.546875,7.546875 3.610444,-10e-4 6.713953,-2.5597 7.404297,-6.103516 0.63754,-3.459607 5.114124,-3.501496 6.220704,-1.279297 l 0.01,-0.002 2.04101,3.50586 c 2.07998,3.68144 6.77029,4.950946 10.42383,2.822265 3.65344,-2.128683 4.86058,-6.834055 2.68359,-10.458984 L 106.35352,47.238281 c -1.40159,-2.485452 -4.08087,-3.973187 -6.931645,-3.851562 z"
         style="color:#000000;font-style:normal;font-variant:normal;font-weight:normal;font-stretch:normal;font-size:medium;line-height:normal;font-family:sans-serif;font-variant-ligatures:normal;font-variant-position:normal;font-variant-caps:normal;font-variant-numeric:normal;font-variant-alternates:normal;font-feature-settings:normal;text-indent:0;text-align:start;text-decoration:none;text-decoration-line:none;text-decoration-style:solid;text-decoration-color:#000000;letter-spacing:normal;word-spacing:normal;text-transform:none;writing-mode:lr-tb;direction:ltr;text-orientation:mixed;dominant-baseline:auto;baseline-shift:baseline;text-anchor:start;white-space:normal;shape-padding:0;clip-rule:nonzero;display:inline;overflow:visible;visibility:visible;opacity:1;isolation:auto;mix-blend-mode:normal;color-interpolation:sRGB;color-interpolation-filters:linearRGB;solid-color:#000000;solid-opacity:1;vector-effect:none;fill:#000000;fill-opacity:1;fill-rule:nonzero;stroke:none;stroke-width:15.16829586;stroke-linecap:round;stroke-linejoin:miter;stroke-miterlimit:4;stroke-dasharray:none;stroke-dashoffset:0;stroke-opacity:1;color-rendering:auto;image-rendering:auto;shape-rendering:auto;text-rendering:auto;enable-background:accumulate" />
    </g>
  </g>
</svg>
