<?xml version="1.0" encoding="UTF-8" standalone="no"?>
<svg
   xmlns:dc="http://purl.org/dc/elements/1.1/"
   xmlns:cc="http://creativecommons.org/ns#"
   xmlns:rdf="http://www.w3.org/1999/02/22-rdf-syntax-ns#"
   xmlns:svg="http://www.w3.org/2000/svg"
   xmlns="http://www.w3.org/2000/svg"
   id="svg926"
   version="1.1"
   viewBox="0 0 173.25551 102.91422"
   height="388.96713"
   width="654.82397">
  <defs
     id="defs920" />
  <metadata
     id="metadata923">
    <rdf:RDF>
      <cc:Work
         rdf:about="">
        <dc:format>image/svg+xml</dc:format>
        <dc:type
           rdf:resource="http://purl.org/dc/dcmitype/StillImage" />
        <dc:title></dc:title>
      </cc:Work>
    </rdf:RDF>
  </metadata>
  <g
     transform="translate(193.21704,61.373776)"
     id="layer1">
    <path
       style="fill:#000000;fill-opacity:1;stroke:none;stroke-width:0.26458332px;stroke-linecap:butt;stroke-linejoin:miter;stroke-opacity:1"
       d="m -140.69604,-61.373347 c -0.2577,0.002 -0.5165,0.008 -0.7752,0.0191 v 5.3e-4 c -7.7687,0.33134 -14.7876,4.73233 -18.4693,11.5812 -3.6816,6.84884 -3.4813,15.131439 0.5279,21.794021 l 8.4873,14.56759 c -0.013,-0.003 -0.024,-0.008 -0.037,-0.0109 4.0701,9.0175004 -3.2782,15.3084194 -10.9342,12.78370937 -2.8313,-1.23610997 -6.1457,-2.13730997 -9.399,-2.14662897 -12.1071,0 -21.9215,9.815359 -21.9215,21.9226896 0,12.107331 9.8144,21.92237 21.9215,21.92269 10.4886,-0.003 19.5053,-7.435649 21.5109,-17.730701 1.8521,-10.050409 14.8534,-10.16963 18.0681,-3.71399 l 0.03,-0.008 5.9324,10.18285 c 6.0426,10.694871 19.6634,14.383991 30.277204,8.200018 10.613498,-6.183969 14.121198,-19.852989 7.796898,-30.3836706 l -8.693499,-14.921568 c -2.617499,-7.3208024 6.523999,-10.6160124 9.928599,-6.1004004 l 25.2062,43.658829 c 5.993,10.733093 19.6094,14.486783 30.2556,8.340691 10.6461,-6.146102 14.2044,-19.814892 7.9064,-30.3719096 l -33.6599,-58.2987694 c -4.043,-7.23648 -11.8051,-11.59169 -20.0882,-11.27115 -8.6562,0.34747 -15.7942,5.96086 -19.548699,13.76815 -2.379099,4.94711 -7.010103,6.4287 -11.797203,6.43217 -4.3673,-0.002 -8.4292,-2.02863 -11.0624,-5.39244 l -2.1053,-3.61321 c -3.9443,-6.99479 -11.368,-11.27143 -19.3574,-11.21069 z"
       id="path890" />
  </g>
</svg>
